<svg width="46" height="46" viewBox="0 0 46 46" fill="none" xmlns="http://www.w3.org/2000/svg">
<rect width="46" height="46" rx="23" fill="#F0C274"/>
<path fill-rule="evenodd" clip-rule="evenodd" d="M22.9998 14.5208C20.8482 14.5208 19.104 16.265 19.104 18.4166C19.104 20.5682 20.8482 22.3124 22.9998 22.3124C25.1514 22.3124 26.8957 20.5682 26.8957 18.4166C26.8957 16.265 25.1514 14.5208 22.9998 14.5208ZM17.729 18.4166C17.729 15.5056 20.0888 13.1458 22.9998 13.1458C25.9108 13.1458 28.2707 15.5056 28.2707 18.4166C28.2707 21.3276 25.9108 23.6874 22.9998 23.6874C20.0888 23.6874 17.729 21.3276 17.729 18.4166Z" fill="white"/>
<path fill-rule="evenodd" clip-rule="evenodd" d="M14.4382 32.1667C14.4382 28.1142 18.4139 25.0625 22.9999 25.0625C27.5859 25.0625 31.5616 28.1142 31.5616 32.1667C31.5616 32.5464 31.2538 32.8542 30.8741 32.8542C30.4944 32.8542 30.1866 32.5464 30.1866 32.1667C30.1866 29.1241 27.1039 26.4375 22.9999 26.4375C18.8959 26.4375 15.8132 29.1241 15.8132 32.1667C15.8132 32.5464 15.5054 32.8542 15.1257 32.8542C14.746 32.8542 14.4382 32.5464 14.4382 32.1667Z" fill="white"/>
</svg>
